<?xml version="1.0" encoding="utf-8"?>
<!-- Generator: Adobe Illustrator 16.0.0, SVG Export Plug-In . SVG Version: 6.00 Build 0)  -->
<!DOCTYPE svg PUBLIC "-//W3C//DTD SVG 1.1//EN" "http://www.w3.org/Graphics/SVG/1.1/DTD/svg11.dtd">
<svg version="1.1" id="Ebene_1" xmlns="http://www.w3.org/2000/svg" xmlns:xlink="http://www.w3.org/1999/xlink" x="0px" y="0px" width="270px" height="60px" viewBox="185 397 160 38" xml:space="preserve">
<polygon fill="#C90000" points="192.807,431.109 191.749,431.109 182,407.878 186.422,407.878 192.43,423.803 198.562,407.878 
	202.788,407.878 192.807,431.109 "/>
<path fill="#C90000" d="M225.062,419.7h-16.396c0,2.667,0.732,4.711,2.189,6.139c1.291,1.247,2.943,1.87,4.973,1.87
	c2.305,0,4.233-0.674,5.777-2.015l1.696,2.906c-0.623,0.623-1.58,1.16-2.87,1.616c-1.609,0.595-3.407,0.892-5.393,0.892
	c-2.856,0-5.284-0.972-7.284-2.914c-2.218-2.138-3.334-5.008-3.334-8.618c0-3.755,1.145-6.763,3.421-9.024
	c2.037-2.029,4.451-3.037,7.241-3.037c3.24,0,5.784,0.913,7.625,2.74c1.783,1.754,2.675,4.081,2.675,6.98
	C225.381,418.135,225.272,418.954,225.062,419.7L225.062,419.7z M215.277,410.908c-1.805,0-3.312,0.587-4.53,1.747
	c-1.16,1.102-1.812,2.472-1.972,4.117h12.59c0-1.631-0.507-2.986-1.529-4.073C218.72,411.502,217.197,410.908,215.277,410.908
	L215.277,410.908z"/>
<path fill="#C90000" d="M241.986,411.822c-0.877-0.609-1.769-0.914-2.66-0.914c-1.428,0-2.675,0.66-3.747,1.979
	c-1.065,1.319-1.602,2.899-1.602,4.755v13.039h-4.037v-22.745h4.037v3.631c1.471-2.704,3.661-4.052,6.56-4.052
	c0.725,0,1.769,0.123,3.124,0.377L241.986,411.822L241.986,411.822z"/>
<path fill="#C90000" d="M250.691,399.34c0.688,0,1.283,0.24,1.769,0.732c0.493,0.486,0.732,1.073,0.732,1.754
	c0,0.688-0.239,1.283-0.732,1.768c-0.486,0.493-1.08,0.732-1.769,0.732c-0.682,0-1.269-0.239-1.754-0.732
	c-0.485-0.485-0.732-1.08-0.732-1.768c0-0.696,0.239-1.283,0.725-1.769C249.408,399.58,249.996,399.34,250.691,399.34
	L250.691,399.34z M248.48,430.681v-19.345h-3.124v-3.399h7.162v22.745H248.48L248.48,430.681z"/>
<path fill="#C90000" d="M272.921,430.681v-13.228c0-2.421-0.362-4.117-1.094-5.088c-0.725-0.971-1.95-1.457-3.661-1.457
	c-0.92,0-1.884,0.283-2.892,0.834c-1,0.55-1.775,1.232-2.312,2.037v16.902h-4.03v-22.745h2.754l1.276,2.936
	c1.334-2.24,3.508-3.356,6.523-3.356c4.979,0,7.473,3.03,7.473,9.089v14.076H272.921L272.921,430.681z"/>
<path fill="#C90000" d="M286.853,399.34c0.688,0,1.283,0.24,1.769,0.732c0.493,0.486,0.732,1.073,0.732,1.754
	c0,0.688-0.239,1.283-0.732,1.768c-0.486,0.493-1.08,0.732-1.769,0.732c-0.682,0-1.269-0.239-1.754-0.732
	c-0.485-0.485-0.732-1.08-0.732-1.768c0-0.696,0.239-1.283,0.725-1.769C285.569,399.58,286.156,399.34,286.853,399.34
	L286.853,399.34z M284.642,430.681v-19.345h-3.124v-3.399h7.161v22.745H284.642L284.642,430.681z"/>
<path fill="#C90000" d="M312.249,409.785l-2,2.849c-0.405-0.413-1.13-0.805-2.174-1.167c-1.044-0.37-2.066-0.558-3.066-0.558
	c-2.197,0-3.936,0.768-5.227,2.305c-1.288,1.537-1.935,3.646-1.935,6.32c0,2.66,0.659,4.689,1.978,6.081
	c1.312,1.399,3.14,2.095,5.481,2.095c1.812,0,3.638-0.703,5.479-2.102l1.587,3.399c-2.167,1.398-4.851,2.102-8.046,2.102
	c-3.101,0-5.66-1.044-7.69-3.124c-2.022-2.08-3.037-4.899-3.037-8.451c0-3.624,1.051-6.531,3.153-8.727
	c2.109-2.196,4.986-3.291,8.633-3.291c1.183,0,2.449,0.247,3.826,0.739C310.583,408.756,311.598,409.263,312.249,409.785
	L312.249,409.785z"/>
<path fill="#C90000" d="M335.777,419.7h-16.396c0,2.667,0.732,4.711,2.188,6.139c1.291,1.247,2.943,1.87,4.973,1.87
	c2.306,0,4.235-0.674,5.777-2.015l1.695,2.906c-0.623,0.623-1.579,1.16-2.868,1.616c-1.61,0.595-3.407,0.892-5.394,0.892
	c-2.855,0-5.284-0.972-7.284-2.914c-2.217-2.138-3.335-5.008-3.335-8.618c0-3.755,1.145-6.763,3.423-9.024
	c2.037-2.029,4.449-3.037,7.239-3.037c3.24,0,5.785,0.913,7.625,2.74c1.783,1.754,2.677,4.081,2.677,6.98
	C336.098,418.135,335.987,418.954,335.777,419.7L335.777,419.7z M325.991,410.908c-1.805,0-3.312,0.587-4.529,1.747
	c-1.16,1.102-1.812,2.472-1.973,4.117h12.592c0-1.631-0.508-2.986-1.529-4.073C329.436,411.502,327.914,410.908,325.991,410.908
	L325.991,410.908z"/>
<path fill="#C90000" d="M344.989,424.716c0.877,0,1.631,0.312,2.255,0.935c0.622,0.623,0.935,1.37,0.935,2.247
	s-0.312,1.631-0.935,2.262c-0.624,0.631-1.378,0.949-2.255,0.949s-1.623-0.318-2.245-0.949c-0.625-0.631-0.937-1.385-0.937-2.262
	s0.312-1.624,0.937-2.247C343.366,425.028,344.112,424.716,344.989,424.716L344.989,424.716z"/>
</svg>
