<svg viewBox="0 0 323 41" xmlns="http://www.w3.org/2000/svg" height="50%" width="85%"><path fill="#C81517" class="st0" d="M13.83 40.63h-1.36L0 10.92h5.66l7.68 20.37 7.85-20.37h5.4L13.83 40.63zM56.08 26.04H35.11c0 3.41.94 6.03 2.8 7.85 1.65 1.6 3.76 2.39 6.36 2.39 2.95 0 5.41-.86 7.39-2.58l2.17 3.72c-.8.8-2.02 1.48-3.67 2.07-2.06.76-4.36 1.14-6.9 1.14-3.65 0-6.76-1.24-9.32-3.73-2.84-2.73-4.26-6.4-4.26-11.02 0-4.8 1.46-8.65 4.38-11.54 2.61-2.6 5.69-3.88 9.26-3.88 4.14 0 7.4 1.17 9.75 3.5 2.28 2.24 3.42 5.22 3.42 8.93 0 1.15-.14 2.2-.41 3.15zM43.56 14.8c-2.31 0-4.24.75-5.79 2.23-1.48 1.41-2.32 3.16-2.52 5.27h16.1c0-2.09-.65-3.82-1.96-5.21-1.42-1.53-3.37-2.29-5.83-2.29zM79.73 15.97c-1.12-.78-2.26-1.17-3.4-1.17-1.83 0-3.42.84-4.79 2.53-1.36 1.69-2.05 3.71-2.05 6.08v16.68h-5.17V11h5.16v4.64c1.88-3.46 4.68-5.18 8.39-5.18.93 0 2.26.16 4 .48l-2.14 5.03zM92.86 0c.88 0 1.64.31 2.26.94.63.62.94 1.37.94 2.24 0 .88-.31 1.64-.94 2.26-.62.63-1.38.94-2.26.94-.87 0-1.62-.31-2.24-.94-.62-.62-.94-1.38-.94-2.26 0-.89.31-1.64.93-2.26.61-.61 1.36-.92 2.25-.92zm-2.83 40.09V15.34h-4v-4.35h9.16v29.1h-5.16zM123.29 40.09V23.17c0-3.1-.46-5.27-1.4-6.51-.93-1.24-2.49-1.86-4.68-1.86-1.18 0-2.41.36-3.7 1.07-1.28.7-2.27 1.58-2.96 2.6v21.62h-5.15V11h3.52l1.63 3.75c1.71-2.86 4.49-4.29 8.34-4.29 6.37 0 9.56 3.88 9.56 11.63v18h-5.16zM142.11 0c.88 0 1.64.31 2.26.94.63.62.94 1.37.94 2.24 0 .88-.31 1.64-.94 2.26-.62.63-1.38.94-2.26.94-.87 0-1.62-.31-2.24-.94-.62-.62-.94-1.38-.94-2.26 0-.89.31-1.64.93-2.26.61-.61 1.36-.92 2.25-.92zm-2.83 40.09V15.34h-4v-4.35h9.16v29.1h-5.16zM176.59 13.36 174.03 17c-.52-.53-1.45-1.03-2.78-1.49-1.34-.47-2.64-.71-3.92-.71-2.81 0-5.03.98-6.68 2.95-1.65 1.97-2.47 4.66-2.47 8.08 0 3.4.84 6 2.53 7.78 1.68 1.79 4.02 2.68 7.01 2.68 2.32 0 4.65-.9 7.01-2.69l2.03 4.35c-2.77 1.79-6.2 2.69-10.29 2.69-3.97 0-7.24-1.34-9.84-4-2.59-2.66-3.88-6.27-3.88-10.81 0-4.64 1.34-8.35 4.03-11.16 2.7-2.81 6.38-4.21 11.04-4.21 1.51 0 3.13.32 4.89.95 1.75.63 3.05 1.28 3.88 1.95zM207.68 26.04h-20.97c0 3.41.94 6.03 2.8 7.85 1.65 1.6 3.76 2.39 6.36 2.39 2.95 0 5.42-.86 7.39-2.58l2.17 3.72c-.8.8-2.02 1.48-3.67 2.07-2.06.76-4.36 1.14-6.9 1.14-3.65 0-6.76-1.24-9.32-3.73-2.84-2.73-4.27-6.4-4.27-11.02 0-4.8 1.46-8.65 4.38-11.54 2.61-2.6 5.69-3.88 9.26-3.88 4.14 0 7.4 1.17 9.75 3.5 2.28 2.24 3.42 5.22 3.42 8.93.01 1.15-.13 2.2-.4 3.15zM195.17 14.8c-2.31 0-4.24.75-5.79 2.23-1.48 1.41-2.32 3.16-2.52 5.27h16.1c0-2.09-.65-3.82-1.96-5.21-1.43-1.53-3.37-2.29-5.83-2.29zM223.47 32.46c1.12 0 2.09.4 2.88 1.2.8.8 1.2 1.75 1.2 2.87s-.4 2.09-1.2 2.89c-.8.81-1.76 1.21-2.88 1.21-1.12 0-2.08-.41-2.87-1.21-.8-.81-1.2-1.77-1.2-2.89s.4-2.08 1.2-2.87c.79-.8 1.75-1.2 2.87-1.2z"/><path fill="#848585" d="M249.88 40.5h-1.37L235.9 10.44h5.72l7.78 20.61 7.94-20.61h5.47L249.88 40.5zM291.62 25.74h-21.21c0 3.44.94 6.09 2.83 7.94 1.67 1.61 3.81 2.42 6.43 2.42 2.99 0 5.48-.87 7.48-2.61l2.2 3.76c-.81.81-2.04 1.5-3.71 2.09-2.09.77-4.42 1.15-6.98 1.15-3.7 0-6.84-1.25-9.42-3.76-2.88-2.77-4.31-6.48-4.31-11.16 0-4.85 1.47-8.75 4.42-11.68 2.64-2.62 5.76-3.93 9.37-3.93 4.2 0 7.48 1.18 9.87 3.54 2.31 2.27 3.46 5.29 3.46 9.04-.02 1.17-.16 2.23-.43 3.2zm-12.67-11.37c-2.33 0-4.28.75-5.85 2.25-1.5 1.43-2.35 3.21-2.56 5.33h16.3c0-2.11-.66-3.86-1.98-5.28-1.45-1.54-3.42-2.3-5.91-2.3zM295.61 25.16c0-4.54 1.22-8.21 3.67-11.01 2.45-2.79 5.67-4.19 9.66-4.19 4.21 0 7.48 1.34 9.81 4.03 2.33 2.68 3.49 6.41 3.49 11.17 0 4.74-1.19 8.49-3.57 11.22-2.38 2.74-5.62 4.11-9.73 4.11-4.2 0-7.46-1.38-9.81-4.15-2.35-2.76-3.52-6.49-3.52-11.18zm5.49 0c0 7.38 2.61 11.07 7.83 11.07 2.44 0 4.35-.99 5.73-2.97 1.38-1.98 2.07-4.68 2.07-8.11 0-7.29-2.6-10.94-7.8-10.94-2.38 0-4.28.97-5.7 2.91-1.42 1.96-2.13 4.64-2.13 8.04z" class="st1"/></svg>
